<svg xmlns="http://www.w3.org/2000/svg">
    <symbol id="pause-button">
        <path fill="#EDF2F7" d="M16 2a14 14 0 1 0 14 14A14 14 0 0 0 16 2m-2 20h-2V10h2Zm6 0h-2V10h2Z" />
    </symbol>

    <symbol id="play-button">
        <path fill="none"
            d="M11 23a1 1 0 0 1-1-1V10a1 1 0 0 1 1.447-.894l12 6a1 1 0 0 1 0 1.788l-12 6A1 1 0 0 1 11 23" />
        <path fill="#EDF2F7"
            d="M16 2a14 14 0 1 0 14 14A14 14 0 0 0 16 2m7.447 14.895l-12 6A1 1 0 0 1 10 22V10a1 1 0 0 1 1.447-.894l12 6a1 1 0 0 1 0 1.788" />
    </symbol>

    <symbol id="next-button">
        <path fill="#EDF2F7"
            d="M2 3.002a1 1 0 0 1 1.578-.816l7 4.963a1 1 0 0 1 .007 1.628l-7 5.037A1 1 0 0 1 2 13.003zM14 2.5a.5.5 0 1 0-1 0v11a.5.5 0 0 0 1 0z" />
    </symbol>

    <symbol id="previous-button">
        <path fill="#EDF2F7"
            d="M14 3.002a1 1 0 0 0-1.578-.816l-7 4.963a1 1 0 0 0-.007 1.628l7 5.037A1 1 0 0 0 14 13.003zM2 2.5a.5.5 0 0 1 1 0v11a.5.5 0 0 1-1 0z" />
    </symbol>
</svg>