<svg xmlns="http://www.w3.org/2000/svg">
    <symbol id="pause-button">
        <path fill="#EDF2F7" d="M16 2a14 14 0 1 0 14 14A14 14 0 0 0 16 2m-2 20h-2V10h2Zm6 0h-2V10h2Z" />
    </symbol>

    <symbol id="play-button">
        <path fill="none"
            d="M11 23a1 1 0 0 1-1-1V10a1 1 0 0 1 1.447-.894l12 6a1 1 0 0 1 0 1.788l-12 6A1 1 0 0 1 11 23" />
        <path fill="#EDF2F7"
            d="M16 2a14 14 0 1 0 14 14A14 14 0 0 0 16 2m7.447 14.895l-12 6A1 1 0 0 1 10 22V10a1 1 0 0 1 1.447-.894l12 6a1 1 0 0 1 0 1.788" />
    </symbol>

    <symbol id="next-button">
        <path fill="#EDF2F7"
            d="M2 3.002a1 1 0 0 1 1.578-.816l7 4.963a1 1 0 0 1 .007 1.628l-7 5.037A1 1 0 0 1 2 13.003zM14 2.5a.5.5 0 1 0-1 0v11a.5.5 0 0 0 1 0z" />
    </symbol>

    <symbol id="previous-button">
        <path fill="#EDF2F7"
            d="M14 3.002a1 1 0 0 0-1.578-.816l-7 4.963a1 1 0 0 0-.007 1.628l7 5.037A1 1 0 0 0 14 13.003zM2 2.5a.5.5 0 0 1 1 0v11a.5.5 0 0 1-1 0z" />
    </symbol>

    <symbol id="shuffle-button">
        <path fill="" fill-rule="evenodd"
            d="M1.75 12.5a.75.75 0 0 1 0-1.5h2.044c.86 0 1.644-.49 2.021-1.262L6.665 8l-.85-1.738A2.25 2.25 0 0 0 3.794 5H1.75a.75.75 0 1 1 0-1.5h2.044a3.75 3.75 0 0 1 3.369 2.103l.337.69l.337-.69A3.75 3.75 0 0 1 11.206 3.5h1.233l-.97-.97a.75.75 0 0 1 1.061-1.06l2.25 2.25a.75.75 0 0 1 0 1.06l-2.25 2.25a.75.75 0 1 1-1.06-1.06l.97-.97h-1.234c-.86 0-1.644.49-2.021 1.262l-2.022 4.135A3.75 3.75 0 0 1 3.794 12.5zm6.639-1.542l.696-1.424l.1.204A2.25 2.25 0 0 0 11.206 11h1.233l-.97-.97a.75.75 0 1 1 1.061-1.06l2.25 2.25a.75.75 0 0 1 0 1.06l-2.25 2.25a.75.75 0 1 1-1.06-1.06l.97-.97h-1.234a3.75 3.75 0 0 1-2.905-1.378q.046-.08.088-.164"
            clip-rule="evenodd" />
    </symbol>

    <symbol id="mute-volume">
        <path fill="none" stroke="#EDF2F7" stroke-linecap="round" stroke-linejoin="round" stroke-width="2"
            d="M11 4.702a.705.705 0 0 0-1.203-.498L6.413 7.587A1.4 1.4 0 0 1 5.416 8H3a1 1 0 0 0-1 1v6a1 1 0 0 0 1 1h2.416a1.4 1.4 0 0 1 .997.413l3.383 3.384A.705.705 0 0 0 11 19.298zM22 9l-6 6m0-6l6 6" />
    </symbol>

    <symbol id="low-volume">
        <path fill="none" stroke="#EDF2F7" stroke-linecap="round" stroke-linejoin="round" stroke-width="2"
            d="M11 4.702a.705.705 0 0 0-1.203-.498L6.413 7.587A1.4 1.4 0 0 1 5.416 8H3a1 1 0 0 0-1 1v6a1 1 0 0 0 1 1h2.416a1.4 1.4 0 0 1 .997.413l3.383 3.384A.705.705 0 0 0 11 19.298zM16 9a5 5 0 0 1 0 6" />
    </symbol>

    <symbol id="high-volume">
        <path fill="none" stroke="#EDF2F7" stroke-linecap="round" stroke-linejoin="round" stroke-width="2"
            d="M11 4.702a.705.705 0 0 0-1.203-.498L6.413 7.587A1.4 1.4 0 0 1 5.416 8H3a1 1 0 0 0-1 1v6a1 1 0 0 0 1 1h2.416a1.4 1.4 0 0 1 .997.413l3.383 3.384A.705.705 0 0 0 11 19.298zM16 9a5 5 0 0 1 0 6m3.364 3.364a9 9 0 0 0 0-12.728" />
    </symbol>

    <symbol id="repeat-button">
        <g fill="none" stroke="" stroke-linecap="round" stroke-linejoin="round" stroke-width="2">
            <path d="m17 2l4 4l-4 4" />
            <path d="M3 11v-1a4 4 0 0 1 4-4h14M7 22l-4-4l4-4" />
            <path d="M21 13v1a4 4 0 0 1-4 4H3" />
        </g>
    </symbol>
</svg>